<svg width="14" height="16" viewBox="0 0 14 16" fill="none" xmlns="http://www.w3.org/2000/svg">
<path fill-rule="evenodd" clip-rule="evenodd" d="M13.0949 3.80315L12.089 4.76073C13.0279 5.70711 13.6551 6.89457 13.8932 8.17646C14.1312 9.45836 13.9695 10.7785 13.4283 11.974C12.887 13.1694 11.9897 14.1878 10.8474 14.9032C9.70497 15.6187 8.36746 16 7 16C5.63254 16 4.29503 15.6187 3.15264 14.9032C2.01025 14.1878 1.11302 13.1694 0.571736 11.974C0.0304565 10.7785 -0.13116 9.45836 0.106846 8.17646C0.344852 6.89457 0.972056 5.70711 1.911 4.76073L0.905103 3.80315L1.8949 2.86057L2.97098 3.88495C3.95401 3.22177 5.10114 2.81304 6.3 2.69881V1.33274H4.9V0H9.1V1.33274H7.7V2.69881C8.89886 2.81304 10.046 3.22177 11.029 3.88495L12.1051 2.86057L13.0949 3.80315ZM3.88881 13.7617C4.80972 14.3475 5.89243 14.6602 7 14.6602C8.4847 14.6586 9.90811 14.0964 10.958 13.097C12.0078 12.0976 12.5983 10.7426 12.6 9.3292C12.6 8.27484 12.2716 7.24415 11.6562 6.36747C11.0409 5.4908 10.1663 4.80752 9.14303 4.40403C8.11976 4.00054 6.99379 3.89497 5.90749 4.10066C4.8212 4.30636 3.82338 4.81409 3.0402 5.55964C2.25703 6.30519 1.72368 7.25507 1.50761 8.28918C1.29153 9.32329 1.40243 10.3952 1.82628 11.3693C2.25013 12.3434 2.96789 13.176 3.88881 13.7617ZM7.2 8.99823V5C8.03068 5 8.8427 5.23449 9.53339 5.67382C10.2241 6.11316 10.7624 6.73759 11.0803 7.46817C11.3982 8.19876 11.4814 9.00267 11.3193 9.77825C11.1572 10.5538 10.7572 11.2662 10.1698 11.8254C9.58246 12.3846 8.8341 12.7654 8.01938 12.9196C7.20466 13.0739 6.36018 12.9947 5.59273 12.6921C4.82528 12.3895 4.16933 11.877 3.70783 11.2195C3.24633 10.562 3 9.78901 3 8.99823H7.2Z" fill="#FF3F05"/>
</svg>
