<svg width="32" height="32" viewBox="0 0 32 32" fill="none" xmlns="http://www.w3.org/2000/svg">
<path d="M29.8563 9.15452C29.8562 8.44011 29.475 7.78001 28.8563 7.42279L26.6072 6.12421C26.3032 5.94867 26.0507 5.69618 25.8752 5.39213L24.5772 3.14385C24.2199 2.52502 23.5597 2.1438 22.8451 2.1438H20.2488C19.8978 2.1438 19.5529 2.05138 19.2488 1.87583L16.9999 0.577393C16.3811 0.220103 15.6187 0.220103 14.9999 0.577393L12.751 1.87583C12.447 2.05138 12.1021 2.1438 11.751 2.1438H9.15463C8.44011 2.1438 7.77987 2.52498 7.4226 3.14377L6.12411 5.39271C5.94857 5.69674 5.69609 5.94922 5.39205 6.12475L3.14383 7.4227C2.52501 7.77996 2.1438 8.44023 2.1438 9.15477V11.7511C2.1438 12.1022 2.05138 12.4471 1.87583 12.7511L0.577393 15C0.220103 15.6188 0.220103 16.3812 0.577393 17L1.87583 19.2489C2.05138 19.5529 2.1438 19.8978 2.1438 20.2489V22.8453C2.1438 23.5598 2.52498 24.22 3.14377 24.5773L5.39274 25.8758C5.69676 26.0513 5.94921 26.3038 6.12474 26.6078L7.42325 28.8568C7.78052 29.4756 8.44076 29.8568 9.15528 29.8568H11.7517C12.1027 29.8568 12.4476 29.9492 12.7516 30.1247L15 31.4227C15.6188 31.7799 16.3812 31.7799 17 31.4226L19.2489 30.1242C19.5529 29.9486 19.8978 29.8562 20.2489 29.8562H22.8453C23.5598 29.8562 24.22 29.475 24.5773 28.8562L25.8758 26.6073C26.0513 26.3032 26.3038 26.0508 26.6078 25.8753L28.8568 24.5768C29.4756 24.2195 29.8568 23.5592 29.8568 22.8447V20.2484C29.8568 19.8973 29.9492 19.5524 30.1247 19.2483L31.4232 16.9995C31.7805 16.3807 31.7805 15.6182 31.4232 14.9994L30.1247 12.7504C29.9492 12.4465 29.8567 12.1017 29.8567 11.7507L29.8563 9.15452Z" fill="#FF3F05"/>
<path d="M14.0097 21.1298C13.7713 21.5195 13.4758 21.7143 13.1234 21.7143C12.9057 21.7143 12.7139 21.6323 12.5481 21.4682C12.3926 21.3144 12.3148 21.1195 12.3148 20.8837C12.3148 20.6888 12.377 20.4838 12.5014 20.2684L18.0058 10.8702C18.2235 10.4806 18.5137 10.2857 18.8765 10.2857C19.1046 10.2857 19.2964 10.3678 19.4519 10.5318C19.6177 10.6856 19.7006 10.8805 19.7006 11.1163C19.7006 11.3112 19.6384 11.5163 19.5141 11.7316L14.0097 21.1298ZM11.9883 17.0383C11.0968 17.0383 10.3971 16.7563 9.88918 16.1923C9.39161 15.618 9.14282 14.7874 9.14282 13.7004C9.14282 12.6442 9.39679 11.8341 9.90473 11.2701C10.4127 10.6959 11.1072 10.4088 11.9883 10.4088C12.8798 10.4088 13.5743 10.6959 14.0719 11.2701C14.5798 11.8341 14.8338 12.6494 14.8338 13.7158C14.8338 14.8028 14.5798 15.6283 14.0719 16.1923C13.5743 16.7563 12.8798 17.0383 11.9883 17.0383ZM11.9883 15.5924C12.3097 15.5924 12.5429 15.4488 12.688 15.1617C12.8331 14.8746 12.9057 14.3926 12.9057 13.7158C12.9057 13.0698 12.828 12.6032 12.6725 12.3161C12.5273 12.0187 12.2993 11.87 11.9883 11.87C11.6773 11.87 11.4493 12.0136 11.3041 12.3007C11.159 12.5878 11.0865 13.0595 11.0865 13.7158C11.0865 14.3824 11.159 14.8643 11.3041 15.1617C11.4493 15.4488 11.6773 15.5924 11.9883 15.5924ZM20.0116 21.5297C19.1201 21.5297 18.4204 21.2477 17.9125 20.6837C17.4149 20.1095 17.1661 19.2789 17.1661 18.1919C17.1661 17.1254 17.4149 16.3102 17.9125 15.7462C18.4204 15.1822 19.1201 14.9002 20.0116 14.9002C20.8927 14.9002 21.5873 15.1873 22.0952 15.7616C22.6031 16.3256 22.8571 17.1408 22.8571 18.2073C22.8571 19.284 22.6031 20.1095 22.0952 20.6837C21.5976 21.2477 20.9031 21.5297 20.0116 21.5297ZM20.0116 20.0838C20.333 20.0838 20.5662 19.9403 20.7113 19.6532C20.8565 19.366 20.929 18.8841 20.929 18.2073C20.929 17.551 20.8513 17.0793 20.6958 16.7922C20.5507 16.4948 20.3226 16.3461 20.0116 16.3461C19.7006 16.3461 19.4674 16.4948 19.3119 16.7922C19.1668 17.0793 19.0942 17.551 19.0942 18.2073C19.0942 18.8841 19.1668 19.366 19.3119 19.6532C19.457 19.9403 19.6903 20.0838 20.0116 20.0838Z" fill="white"/>
</svg>
