<svg width="24" height="24" viewBox="0 0 24 24" fill="none" xmlns="http://www.w3.org/2000/svg">
<path d="M18.0391 16.4434L16.4403 18.0421L14.7916 16.3934L16.3903 14.7947L18.0391 16.4434Z" fill="#334A5E"/>
<path d="M23.2849 23.288C22.3356 24.2373 20.7868 24.2373 19.8376 23.288L15.1413 18.5917L18.5886 15.1444L23.2849 19.8407C24.2341 20.79 24.2341 22.3388 23.2849 23.288Z" fill="#FFD15C"/>
<path d="M16.1405 2.75415C12.4435 -0.893009 6.49812 -0.942927 2.80099 2.75415C-0.896139 6.45124 -0.946057 12.3466 2.75102 16.0437C6.39819 19.7408 12.3935 19.7408 16.0906 16.0937C19.7877 12.4466 19.7877 6.45124 16.1405 2.75415Z" fill="#40596B"/>
<path d="M14.6417 14.6448C11.744 17.4925 7.0477 17.4925 4.19989 14.5948C1.30217 11.7471 1.35214 7.05071 4.24986 4.20295C7.14759 1.35519 11.8439 1.35519 14.6917 4.25291C17.5395 7.10072 17.5395 11.797 14.6417 14.6448Z" fill="#E8FFFF"/>
<path d="M18.5887 15.1444L15.0914 18.5417L16.5403 19.9906L19.9876 16.5433L18.5887 15.1444Z" fill="#F8B64C"/>
</svg>
